<svg width="48" height="48" viewBox="0 0 48 48" fill="none" xmlns="http://www.w3.org/2000/svg">
<path d="M48 0H0V48H48V0Z" fill="white"/>
<path d="M36.0351 15H11.9649C10.8797 15 10 15.8797 10 16.9649V31.7018C10 32.7869 10.8797 33.6667 11.9649 33.6667H36.0351C37.1203 33.6667 38 32.7869 38 31.7018V16.9649C38 15.8797 37.1203 15 36.0351 15Z" fill="black"/>
<path d="M24 33.6667V15" stroke="#A6A6A6" stroke-width="0.777778"/>
<path d="M34.8889 17.3333H26.3333C25.9038 17.3333 25.5555 17.6815 25.5555 18.111V18.8888C25.5555 19.3184 25.9038 19.6666 26.3333 19.6666H34.8889C35.3184 19.6666 35.6667 19.3184 35.6667 18.8888V18.111C35.6667 17.6815 35.3184 17.3333 34.8889 17.3333Z" fill="#3FE07F"/>
<path d="M34.8889 28.2222H26.3333C25.9038 28.2222 25.5555 28.5704 25.5555 28.9999C25.5555 29.4295 25.9038 29.7777 26.3333 29.7777H34.8889C35.3184 29.7777 35.6667 29.4295 35.6667 28.9999C35.6667 28.5704 35.3184 28.2222 34.8889 28.2222Z" fill="#3FE07F"/>
<path d="M19.3334 20.4445H13.1112C12.6816 20.4445 12.3334 20.7927 12.3334 21.2222C12.3334 21.6518 12.6816 22 13.1112 22H19.3334C19.7629 22 20.1112 21.6518 20.1112 21.2222C20.1112 20.7927 19.7629 20.4445 19.3334 20.4445Z" fill="#0085FF"/>
<path d="M20.8889 18.1111H13.1112C12.6816 18.1111 12.3334 18.4593 12.3334 18.8889C12.3334 19.3184 12.6816 19.6666 13.1112 19.6666H20.8889C21.3185 19.6666 21.6667 19.3184 21.6667 18.8889C21.6667 18.4593 21.3185 18.1111 20.8889 18.1111Z" fill="#0085FF"/>
<path d="M34.8889 30.5555H26.3333C25.9038 30.5555 25.5555 30.9038 25.5555 31.3333C25.5555 31.7629 25.9038 32.1111 26.3333 32.1111H34.8889C35.3184 32.1111 35.6667 31.7629 35.6667 31.3333C35.6667 30.9038 35.3184 30.5555 34.8889 30.5555Z" fill="#3FE07F"/>
<path d="M17 22.7777H13.1112C12.6816 22.7777 12.3334 23.1259 12.3334 23.5555C12.3334 23.985 12.6816 24.3333 13.1112 24.3333H17C17.4296 24.3333 17.7778 23.985 17.7778 23.5555C17.7778 23.1259 17.4296 22.7777 17 22.7777Z" fill="#0085FF"/>
<path d="M21.6667 25.1111H13.1112C12.6816 25.1111 12.3334 25.4593 12.3334 25.8889V30.5555C12.3334 30.9851 12.6816 31.3333 13.1112 31.3333H21.6667C22.0963 31.3333 22.4445 30.9851 22.4445 30.5555V25.8889C22.4445 25.4593 22.0963 25.1111 21.6667 25.1111Z" fill="#0085FF" fill-opacity="0.5"/>
<path d="M30.2222 21.2222H21.6667C21.2371 21.2222 20.8889 21.5704 20.8889 21.9999V26.6666C20.8889 27.0962 21.2371 27.4444 21.6667 27.4444H30.2222C30.6518 27.4444 31 27.0962 31 26.6666V21.9999C31 21.5704 30.6518 21.2222 30.2222 21.2222Z" fill="#0085FF"/>
</svg>
