<svg width="48" height="48" viewBox="0 0 48 48" fill="none" xmlns="http://www.w3.org/2000/svg">
<rect width="48" height="48" rx="4" fill="white"/>
<mask id="path-2-inside-1_132_854" fill="white">
<path d="M4 14C4 11.7909 5.79086 10 8 10H22C23.1046 10 24 10.8954 24 12V36C24 37.1046 23.1046 38 22 38H8C5.79086 38 4 36.2091 4 34V14Z"/>
</mask>
<path d="M4 14C4 11.7909 5.79086 10 8 10H22C23.1046 10 24 10.8954 24 12V36C24 37.1046 23.1046 38 22 38H8C5.79086 38 4 36.2091 4 34V14Z" fill="#3477E5"/>
<path d="M4 10H24H4ZM24 38H4H24ZM4 38V10V38ZM22 10C23.6569 10 25 11.3431 25 13V35C25 36.6569 23.6569 38 22 38C22.5523 38 23 37.1046 23 36V12C23 10.8954 22.5523 10 22 10Z" fill="#B3B3B3" mask="url(#path-2-inside-1_132_854)"/>
<mask id="path-4-inside-2_132_854" fill="white">
<path d="M24 12C24 10.8954 24.8954 10 26 10H40C42.2091 10 44 11.7909 44 14V34C44 36.2091 42.2091 38 40 38H26C24.8954 38 24 37.1046 24 36V12Z"/>
</mask>
<path d="M24 12C24 10.8954 24.8954 10 26 10H40C42.2091 10 44 11.7909 44 14V34C44 36.2091 42.2091 38 40 38H26C24.8954 38 24 37.1046 24 36V12Z" fill="#52B5E5"/>
<path d="M24 10H44H24ZM44 38H24H44ZM26 38C24.3431 38 23 36.6569 23 35V13C23 11.3431 24.3431 10 26 10C25.4477 10 25 10.8954 25 12V36C25 37.1046 25.4477 38 26 38ZM44 10V38V10Z" fill="#B3B3B3" mask="url(#path-4-inside-2_132_854)"/>
<rect x="7" y="22" width="13" height="3" rx="1.5" fill="white"/>
<rect x="28" y="22" width="13" height="3" rx="1.5" fill="white"/>
<rect x="15" y="17" width="13" height="3" rx="1.5" transform="rotate(90 15 17)" fill="white"/>
</svg>
